<svg width="962" height="84" viewBox="0 0 962 84" fill="none" xmlns="http://www.w3.org/2000/svg">
<rect width="962" height="84" rx="10" fill="#FFDF85"/>
<path d="M61.242 21.574V35.726C59.444 33.928 56.544 32.768 53.702 32.768C47.264 32.768 42.044 38.104 42.044 47.674C42.044 56.258 46.278 62.638 53.702 62.638C56.196 62.638 59.212 61.884 61.242 59.854V62H69.942V21.574H61.242ZM56.08 54.46C52.89 54.46 50.802 52.314 50.802 47.79C50.802 43.382 52.774 40.772 56.138 40.772C60.72 40.772 62.054 44.31 62.054 47.79C62.054 51.444 60.546 54.46 56.08 54.46ZM100.605 47.964C100.605 39.148 95.9065 32.768 86.9745 32.768C76.7665 32.768 72.8805 40.714 72.8805 47.848C72.8805 55.214 76.8825 62.638 87.4385 62.638C92.4845 62.638 96.5445 60.724 99.5605 57.302L93.5285 51.966C91.9045 53.938 89.6425 54.75 87.4965 54.75C83.7265 54.75 81.9865 53.01 81.6385 50.748H100.431C100.547 49.53 100.605 48.776 100.605 47.964ZM81.5225 44.31C81.8705 42.454 83.2045 40.018 86.8585 40.018C89.7585 40.018 92.1365 41.642 92.2525 44.31H81.5225ZM92.1365 45.412L92.1945 45.354L92.1365 45.412ZM112.775 62.638C118.111 62.638 124.433 59.738 124.433 52.546C124.433 41.758 110.397 44.6 110.397 40.83C110.397 39.902 111.209 39.206 112.833 39.206C115.675 39.206 116.835 41.526 117.531 42.802L124.259 39.09C121.997 35.32 118.227 32.768 112.949 32.768C107.787 32.768 102.161 35.262 102.161 41.7C102.161 51.792 115.849 49.82 115.849 53.764C115.849 54.634 115.153 55.678 112.717 55.678C108.831 55.678 108.077 52.836 107.497 51.27L100.595 54.344C101.929 58.52 106.453 62.638 112.775 62.638ZM127.427 29.462H136.359V21.574H127.427V29.462ZM127.485 62H136.243V33.406H127.485V62ZM153.045 57.128C149.449 56.722 147.187 56.374 147.187 54.692C147.187 54.344 147.245 54.054 147.419 53.706C149.043 54.344 150.841 54.634 152.813 54.634C160.005 54.634 164.877 50.458 164.877 44.078C164.877 42.28 164.471 40.714 163.833 39.264L168.125 35.842L163.543 30.332L158.903 34.276C156.989 33.29 154.785 32.768 152.523 32.768C145.969 32.768 140.285 37.118 140.285 43.788C140.285 46.282 141.097 48.544 142.489 50.284C140.981 51.792 140.111 53.648 140.111 56.084C140.111 59.274 141.619 61.246 143.765 62.464L139.531 64.03C139.357 64.726 139.299 65.422 139.299 65.944C139.299 71.512 145.041 75.05 153.335 75.05C161.165 75.05 166.907 71.918 166.907 65.422C166.907 59.042 161.339 58.114 153.045 57.128ZM152.639 40.018C154.901 40.018 156.177 41.526 156.177 43.788C156.177 45.934 155.191 47.79 152.639 47.79C150.029 47.79 149.043 45.934 149.043 43.788C149.043 41.584 150.319 40.018 152.639 40.018ZM153.741 68.728C150.029 68.728 148.115 67.684 148.115 66.234C148.115 66.118 148.115 65.944 148.173 65.828L149.797 64.204C150.377 64.32 150.957 64.378 151.479 64.436C154.669 64.784 158.207 64.9 158.207 66.814C158.207 67.8 157.221 68.728 153.741 68.728ZM186.732 32.768C183.716 32.768 180.758 33.464 178.612 36.074V33.406H169.854V62H178.612V48.66C178.612 45.528 178.612 40.366 184.006 40.366C188.53 40.366 188.53 44.02 188.53 46.224V62H197.288V42.976C197.288 36.712 193.344 32.768 186.732 32.768ZM227.287 47.964C227.287 39.148 222.589 32.768 213.657 32.768C203.449 32.768 199.563 40.714 199.563 47.848C199.563 55.214 203.565 62.638 214.121 62.638C219.167 62.638 223.227 60.724 226.243 57.302L220.211 51.966C218.587 53.938 216.325 54.75 214.179 54.75C210.409 54.75 208.669 53.01 208.321 50.748H227.113C227.229 49.53 227.287 48.776 227.287 47.964ZM208.205 44.31C208.553 42.454 209.887 40.018 213.541 40.018C216.441 40.018 218.819 41.642 218.935 44.31H208.205ZM218.819 45.412L218.877 45.354L218.819 45.412ZM246.243 32.768C243.169 32.768 240.385 34.74 239.051 37.756V33.406H230.235V62H238.993V48.718C238.993 43.672 241.023 41.468 244.097 41.468C245.489 41.468 246.997 41.99 247.809 42.512L251.985 34.624C249.955 33.29 248.215 32.768 246.243 32.768Z" fill="#444444"/>
</svg>
