<svg width="962" height="84" viewBox="0 0 962 84" fill="none" xmlns="http://www.w3.org/2000/svg">
<rect width="962" height="84" rx="10" fill="#FF90AD"/>
<path d="M61.242 21.574V35.726C59.444 33.928 56.544 32.768 53.702 32.768C47.264 32.768 42.044 38.104 42.044 47.674C42.044 56.258 46.278 62.638 53.702 62.638C56.196 62.638 59.212 61.884 61.242 59.854V62H69.942V21.574H61.242ZM56.08 54.46C52.89 54.46 50.802 52.314 50.802 47.79C50.802 43.382 52.774 40.772 56.138 40.772C60.72 40.772 62.054 44.31 62.054 47.79C62.054 51.444 60.546 54.46 56.08 54.46ZM100.605 47.964C100.605 39.148 95.9065 32.768 86.9745 32.768C76.7665 32.768 72.8805 40.714 72.8805 47.848C72.8805 55.214 76.8825 62.638 87.4385 62.638C92.4845 62.638 96.5445 60.724 99.5605 57.302L93.5285 51.966C91.9045 53.938 89.6425 54.75 87.4965 54.75C83.7265 54.75 81.9865 53.01 81.6385 50.748H100.431C100.547 49.53 100.605 48.776 100.605 47.964ZM81.5225 44.31C81.8705 42.454 83.2045 40.018 86.8585 40.018C89.7585 40.018 92.1365 41.642 92.2525 44.31H81.5225ZM92.1365 45.412L92.1945 45.354L92.1365 45.412ZM110.861 62H117.995L129.595 33.406H120.199L114.399 50.574L108.773 33.406H99.203L110.861 62ZM155.038 47.964C155.038 39.148 150.34 32.768 141.408 32.768C131.2 32.768 127.314 40.714 127.314 47.848C127.314 55.214 131.316 62.638 141.872 62.638C146.918 62.638 150.978 60.724 153.994 57.302L147.962 51.966C146.338 53.938 144.076 54.75 141.93 54.75C138.16 54.75 136.42 53.01 136.072 50.748H154.864C154.98 49.53 155.038 48.776 155.038 47.964ZM135.956 44.31C136.304 42.454 137.638 40.018 141.292 40.018C144.192 40.018 146.57 41.642 146.686 44.31H135.956ZM146.57 45.412L146.628 45.354L146.57 45.412ZM165.121 62.638C166.397 62.638 168.137 62.406 169.935 61.71V54.866C169.239 55.04 168.543 55.098 168.079 55.098C166.977 55.098 166.397 54.924 166.397 53.59V21.574H157.639V54.75C157.639 60.26 160.945 62.638 165.121 62.638ZM185.035 62.638C194.199 62.638 199.709 55.504 199.709 47.674C199.709 39.786 194.257 32.768 185.035 32.768C175.697 32.768 170.303 39.844 170.303 47.674C170.303 55.504 175.755 62.638 185.035 62.638ZM185.035 55.04C180.221 55.04 179.061 51.154 179.061 47.674C179.061 44.02 180.279 40.366 185.035 40.366C189.791 40.366 190.951 44.078 190.951 47.674C190.951 51.27 189.733 55.04 185.035 55.04ZM218.75 32.768C216.256 32.768 213.24 33.522 211.268 35.552V33.406H202.51V73.832H211.268V59.738C213.066 61.536 216.024 62.638 218.75 62.638C224.956 62.638 230.408 57.592 230.408 47.79C230.408 39.38 226.406 32.768 218.75 32.768ZM216.314 55.04C211.964 55.04 210.456 51.734 210.456 47.674C210.456 43.614 211.79 40.424 216.43 40.424C219.91 40.424 221.708 42.744 221.708 47.674C221.708 52.662 219.91 55.04 216.314 55.04ZM259.375 47.964C259.375 39.148 254.677 32.768 245.745 32.768C235.537 32.768 231.651 40.714 231.651 47.848C231.651 55.214 235.653 62.638 246.209 62.638C251.255 62.638 255.315 60.724 258.331 57.302L252.299 51.966C250.675 53.938 248.413 54.75 246.267 54.75C242.497 54.75 240.757 53.01 240.409 50.748H259.201C259.317 49.53 259.375 48.776 259.375 47.964ZM240.293 44.31C240.641 42.454 241.975 40.018 245.629 40.018C248.529 40.018 250.907 41.642 251.023 44.31H240.293ZM250.907 45.412L250.965 45.354L250.907 45.412ZM278.331 32.768C275.257 32.768 272.473 34.74 271.139 37.756V33.406H262.323V62H271.081V48.718C271.081 43.672 273.111 41.468 276.185 41.468C277.577 41.468 279.085 41.99 279.897 42.512L284.073 34.624C282.043 33.29 280.303 32.768 278.331 32.768Z" fill="#444444"/>
</svg>
