<svg width="962" height="84" viewBox="0 0 962 84" fill="none" xmlns="http://www.w3.org/2000/svg">
<rect width="962" height="84" rx="10" fill="#B8DCFF"/>
<path d="M77.656 32.768C74.35 32.768 70.986 33.754 68.492 38.452C66.636 33.87 63.098 32.768 60.198 32.768C57.588 32.768 54.572 33.696 52.658 37.118V33.406H44.248L44.306 62H53.064V52.778C53.064 47.384 51.846 40.366 57.878 40.366C62.112 40.366 61.706 45.412 61.706 46.108V62H70.406V52.778C70.406 47.384 69.13 40.366 74.988 40.366C78.584 40.366 79.048 44.136 79.048 46.282V62H87.806V43.556C87.806 38.394 84.558 32.768 77.656 32.768ZM110.061 33.406V42.86C110.061 49.646 110.061 55.04 104.783 55.04C100.549 55.04 100.143 52.082 100.143 49.298V33.406H91.3848V51.096C91.3848 57.824 94.5168 62.638 102.115 62.638C105.189 62.638 107.973 61.652 110.061 59.216V62H118.819V33.406H110.061ZM133.392 62.638C138.728 62.638 145.05 59.738 145.05 52.546C145.05 41.758 131.014 44.6 131.014 40.83C131.014 39.902 131.826 39.206 133.45 39.206C136.292 39.206 137.452 41.526 138.148 42.802L144.876 39.09C142.614 35.32 138.844 32.768 133.566 32.768C128.404 32.768 122.778 35.262 122.778 41.7C122.778 51.792 136.466 49.82 136.466 53.764C136.466 54.634 135.77 55.678 133.334 55.678C129.448 55.678 128.694 52.836 128.114 51.27L121.212 54.344C122.546 58.52 127.07 62.638 133.392 62.638ZM148.044 29.462H156.976V21.574H148.044V29.462ZM148.102 62H156.86V33.406H148.102V62ZM174.068 62.638C180.042 62.638 184.566 59.274 186.48 53.88L178.592 50.806C178.07 53.358 176.214 55.04 173.952 55.04C169.834 55.04 168.616 51.444 168.616 47.79C168.616 44.078 169.95 40.366 174.01 40.366C176.33 40.366 178.128 42.106 178.534 44.774L186.77 41.468C184.624 35.61 180.042 32.768 174.01 32.768C164.266 32.768 159.626 40.25 159.626 47.79C159.626 55.098 164.092 62.638 174.068 62.638ZM188.941 29.462H197.873V21.574H188.941V29.462ZM188.999 62H197.757V33.406H188.999V62ZM214.733 32.768C209.745 32.768 204.467 34.392 200.871 38.162L207.193 43.44C209.745 41.004 211.949 40.366 214.095 40.366C217.285 40.366 219.025 41.816 219.025 43.846V44.31H211.137C208.585 44.31 206.323 44.774 204.525 45.76C202.089 47.094 200.581 49.472 200.581 52.778C200.581 58.636 205.221 62.638 211.659 62.638C213.747 62.638 216.821 62.232 219.141 59.158L219.721 62H227.725V43.846C227.725 37.06 222.853 32.768 214.733 32.768ZM213.051 55.62C210.557 55.62 209.339 54.402 209.339 52.952C209.339 52.256 209.629 51.676 210.209 51.27C210.731 50.922 211.485 50.748 212.413 50.748H219.025C218.851 53.59 216.183 55.62 213.051 55.62ZM249.152 32.768C246.136 32.768 243.178 33.464 241.032 36.074V33.406H232.274V62H241.032V48.66C241.032 45.528 241.032 40.366 246.426 40.366C250.95 40.366 250.95 44.02 250.95 46.224V62H259.708V42.976C259.708 36.712 255.764 32.768 249.152 32.768Z" fill="#444444"/>
</svg>
