<svg width="976" height="276" viewBox="0 0 976 276" fill="none" xmlns="http://www.w3.org/2000/svg">
<path d="M87.8428 133.072V112.246H65.4148V79.494L38.7148 99.252V112.246H24.6528V133.072H38.7148V172.054C38.7148 194.482 53.4888 201.958 70.0428 201.958C76.2728 201.958 81.9688 201.068 87.6648 199.11L87.8428 178.284C83.9268 179.53 80.0108 180.242 76.4508 180.242C65.4148 180.242 65.4148 172.944 65.4148 169.562V133.072H87.8428ZM102.592 100.142H130.004V75.934H102.592V100.142ZM102.77 200H129.648V112.246H102.77V200ZM252.058 110.288C241.912 110.288 231.588 113.314 223.934 127.732C218.238 113.67 207.38 110.288 198.48 110.288C190.47 110.288 181.214 113.136 175.34 123.638V112.246H149.53L149.708 200H176.586V171.698C176.586 155.144 172.848 133.606 191.36 133.606C204.354 133.606 203.108 149.092 203.108 151.228V200H229.808V171.698C229.808 155.144 225.892 133.606 243.87 133.606C254.906 133.606 256.33 145.176 256.33 151.762V200H283.208V143.396C283.208 127.554 273.24 110.288 252.058 110.288ZM403.288 110.288C393.142 110.288 382.818 113.314 375.164 127.732C369.468 113.67 358.61 110.288 349.71 110.288C341.7 110.288 332.444 113.136 326.57 123.638V112.246H300.76L300.938 200H327.816V171.698C327.816 155.144 324.078 133.606 342.59 133.606C355.584 133.606 354.338 149.092 354.338 151.228V200H381.038V171.698C381.038 155.144 377.122 133.606 395.1 133.606C406.136 133.606 407.56 145.176 407.56 151.762V200H434.438V143.396C434.438 127.554 424.47 110.288 403.288 110.288ZM453.63 236.312H482.644L533.552 112.246H504.182L484.246 166.358L466.802 112.246H437.254L469.828 196.974L453.63 236.312ZM590.499 110.288C581.421 110.288 572.343 113.848 567.003 119.188V75.934H540.125V200H567.003V193.414C573.055 199.644 582.311 201.958 589.965 201.958C612.749 201.958 625.744 182.378 625.744 156.034C625.744 126.664 609.723 110.288 590.499 110.288ZM582.845 176.86C569.139 176.86 564.511 167.604 564.511 156.39C564.511 145.532 568.605 134.852 582.489 134.852C594.593 134.852 599.043 142.684 599.043 156.39C599.043 170.274 594.237 176.86 582.845 176.86ZM638.062 236.312H667.076L717.984 112.246H688.614L668.678 166.358L651.234 112.246H621.686L654.26 196.974L638.062 236.312ZM779.679 133.072V112.246H757.251V79.494L730.551 99.252V112.246H716.489V133.072H730.551V172.054C730.551 194.482 745.325 201.958 761.879 201.958C768.109 201.958 773.805 201.068 779.501 199.11L779.679 178.284C775.763 179.53 771.847 180.242 768.287 180.242C757.251 180.242 757.251 172.944 757.251 169.562V133.072H779.679ZM871.345 156.924C871.345 129.868 856.927 110.288 829.515 110.288C798.187 110.288 786.261 134.674 786.261 156.568C786.261 179.174 798.543 201.958 830.939 201.958C846.425 201.958 858.885 196.084 868.141 185.582L849.629 169.206C844.645 175.258 837.703 177.75 831.117 177.75C819.547 177.75 814.207 172.41 813.139 165.468H870.811C871.167 161.73 871.345 159.416 871.345 156.924ZM812.783 145.71C813.851 140.014 817.945 132.538 829.159 132.538C838.059 132.538 845.357 137.522 845.713 145.71H812.783ZM845.357 149.092L845.535 148.914L845.357 149.092ZM912.255 201.958C928.631 201.958 948.033 193.058 948.033 170.986C948.033 137.878 904.957 146.6 904.957 135.03C904.957 132.182 907.449 130.046 912.433 130.046C921.155 130.046 924.715 137.166 926.851 141.082L947.499 129.69C940.557 118.12 928.987 110.288 912.789 110.288C896.947 110.288 879.681 117.942 879.681 137.7C879.681 168.672 921.689 162.62 921.689 174.724C921.689 177.394 919.553 180.598 912.077 180.598C900.151 180.598 897.837 171.876 896.057 167.07L874.875 176.504C878.969 189.32 892.853 201.958 912.255 201.958Z" fill="#444444"/>
<path d="M87.8428 133.072V153.572H108.343V133.072H87.8428ZM87.8428 112.246H108.343V91.746H87.8428V112.246ZM65.4148 112.246H44.9148V132.746H65.4148V112.246ZM65.4148 79.494H85.9148V38.8215L53.2205 63.0152L65.4148 79.494ZM38.7148 99.252L26.5205 82.7732L18.2148 88.9195V99.252H38.7148ZM38.7148 112.246V132.746H59.2148V112.246H38.7148ZM24.6528 112.246V91.746H4.15279V112.246H24.6528ZM24.6528 133.072H4.15279V153.572H24.6528V133.072ZM38.7148 133.072H59.2148V112.572H38.7148V133.072ZM87.6648 199.11L94.3289 218.497L108.04 213.783L108.164 199.285L87.6648 199.11ZM87.8428 178.284L108.342 178.459L108.584 150.172L81.6271 158.749L87.8428 178.284ZM65.4148 133.072V112.572H44.9148V133.072H65.4148ZM108.343 133.072V112.246H67.3428V133.072H108.343ZM87.8428 91.746H65.4148V132.746H87.8428V91.746ZM85.9148 112.246V79.494H44.9148V112.246H85.9148ZM53.2205 63.0152L26.5205 82.7732L50.9091 115.731L77.6091 95.9728L53.2205 63.0152ZM18.2148 99.252V112.246H59.2148V99.252H18.2148ZM38.7148 91.746H24.6528V132.746H38.7148V91.746ZM4.15279 112.246V133.072H45.1528V112.246H4.15279ZM24.6528 153.572H38.7148V112.572H24.6528V153.572ZM18.2148 133.072V172.054H59.2148V133.072H18.2148ZM18.2148 172.054C18.2148 188.131 23.7594 202.015 35.2601 211.34C45.9983 220.047 59.1117 222.458 70.0428 222.458V181.458C64.4199 181.458 61.8692 180.131 61.082 179.493C60.7943 179.26 60.4721 178.928 60.1391 178.147C59.7679 177.277 59.2148 175.422 59.2148 172.054H18.2148ZM70.0428 222.458C78.3541 222.458 86.319 221.25 94.3289 218.497L81.0007 179.723C77.6186 180.886 74.1915 181.458 70.0428 181.458V222.458ZM108.164 199.285L108.342 178.459L67.3435 178.109L67.1655 198.935L108.164 199.285ZM81.6271 158.749C79.1998 159.521 77.4166 159.742 76.4508 159.742V200.742C82.605 200.742 88.6538 199.539 94.0585 197.819L81.6271 158.749ZM76.4508 159.742C75.8719 159.742 76.984 159.638 78.8649 160.531C80.9791 161.535 82.9253 163.263 84.2652 165.446C85.4608 167.393 85.7757 169.047 85.8643 169.643C85.9428 170.17 85.9148 170.49 85.9148 169.562H44.9148C44.9148 170.604 44.4995 179.037 49.3234 186.895C55.4591 196.89 66.0196 200.742 76.4508 200.742V159.742ZM85.9148 169.562V133.072H44.9148V169.562H85.9148ZM65.4148 153.572H87.8428V112.572H65.4148V153.572ZM102.592 100.142H82.0918V120.642H102.592V100.142ZM130.004 100.142V120.642H150.504V100.142H130.004ZM130.004 75.934H150.504V55.434H130.004V75.934ZM102.592 75.934V55.434H82.0918V75.934H102.592ZM102.77 200H82.2698V220.5H102.77V200ZM129.648 200V220.5H150.148V200H129.648ZM129.648 112.246H150.148V91.746H129.648V112.246ZM102.77 112.246V91.746H82.2698V112.246H102.77ZM102.592 120.642H130.004V79.642H102.592V120.642ZM150.504 100.142V75.934H109.504V100.142H150.504ZM130.004 55.434H102.592V96.434H130.004V55.434ZM82.0918 75.934V100.142H123.092V75.934H82.0918ZM102.77 220.5H129.648V179.5H102.77V220.5ZM150.148 200V112.246H109.148V200H150.148ZM129.648 91.746H102.77V132.746H129.648V91.746ZM82.2698 112.246V200H123.27V112.246H82.2698ZM223.934 127.732L204.933 135.428L221.433 176.163L242.04 137.344L223.934 127.732ZM175.34 123.638H154.84V202.285L193.231 133.645L175.34 123.638ZM175.34 112.246H195.84V91.746H175.34V112.246ZM149.53 112.246V91.746H128.988L129.03 112.288L149.53 112.246ZM149.708 200L129.208 200.042L129.249 220.5H149.708V200ZM176.586 200V220.5H197.086V200H176.586ZM203.108 200H182.608V220.5H203.108V200ZM229.808 200V220.5H250.308V200H229.808ZM256.33 200H235.83V220.5H256.33V200ZM283.208 200V220.5H303.708V200H283.208ZM252.058 89.788C245.002 89.788 236.214 90.8297 227.427 95.5081C218.446 100.289 211.244 107.916 205.827 118.12L242.04 137.344C244.277 133.13 246.064 132.035 246.695 131.698C247.52 131.259 248.967 130.788 252.058 130.788V89.788ZM242.934 120.036C238.485 109.053 231.398 100.996 222.607 95.9539C214.128 91.0909 205.402 89.788 198.48 89.788V130.788C200.457 130.788 201.61 131.176 202.209 131.52C202.484 131.678 202.816 131.919 203.211 132.381C203.616 132.855 204.261 133.769 204.933 135.428L242.934 120.036ZM198.48 89.788C185.28 89.788 167.919 94.9097 157.448 113.631L193.231 133.645C193.76 132.699 194.214 132.187 194.494 131.919C194.772 131.653 195.023 131.487 195.276 131.361C195.817 131.09 196.823 130.788 198.48 130.788V89.788ZM195.84 123.638V112.246H154.84V123.638H195.84ZM175.34 91.746H149.53V132.746H175.34V91.746ZM129.03 112.288L129.208 200.042L170.207 199.958L170.029 112.204L129.03 112.288ZM149.708 220.5H176.586V179.5H149.708V220.5ZM197.086 200V171.698H156.086V200H197.086ZM197.086 171.698C197.086 169.286 197.018 166.861 196.952 164.686C196.883 162.415 196.816 160.435 196.789 158.474C196.732 154.412 196.882 151.832 197.188 150.175C197.511 148.432 197.639 149.803 195.817 151.645C193.441 154.048 190.992 154.106 191.36 154.106V113.106C182.471 113.106 173.547 115.857 166.666 122.815C160.338 129.212 157.93 137.003 156.873 142.714C155.8 148.51 155.728 154.418 155.793 159.051C155.876 164.999 156.086 167.235 156.086 171.698H197.086ZM191.36 154.106C190.93 154.106 189.991 154.038 188.762 153.603C187.504 153.158 186.288 152.451 185.237 151.538C183.205 149.774 182.63 148.016 182.566 147.814C182.495 147.591 182.586 147.813 182.624 148.581C182.64 148.9 182.642 149.227 182.638 149.574C182.635 149.753 182.631 149.921 182.625 150.149C182.623 150.251 182.608 150.763 182.608 151.228H223.608C223.608 151.913 224.173 143.381 221.647 135.418C220.27 131.078 217.57 125.314 212.117 120.58C206.298 115.527 199.019 113.106 191.36 113.106V154.106ZM182.608 151.228V200H223.608V151.228H182.608ZM203.108 220.5H229.808V179.5H203.108V220.5ZM250.308 200V171.698H209.308V200H250.308ZM250.308 171.698C250.308 169.265 250.236 166.828 250.163 164.63C250.087 162.33 250.012 160.35 249.973 158.356C249.891 154.249 250.012 151.611 250.306 149.883C250.622 148.025 250.788 149.412 248.96 151.339C246.501 153.931 243.809 154.106 243.87 154.106V113.106C234.941 113.106 225.997 115.973 219.216 123.121C213.066 129.603 210.839 137.41 209.887 143.006C208.913 148.732 208.89 154.582 208.981 159.169C209.091 164.755 209.308 167.588 209.308 171.698H250.308ZM243.87 154.106C242.837 154.106 240.775 153.762 238.664 152.275C236.733 150.914 235.902 149.4 235.664 148.889C235.454 148.44 235.552 148.469 235.668 149.23C235.774 149.928 235.83 150.803 235.83 151.762H276.83C276.83 147.647 276.494 139.422 272.812 131.539C270.838 127.313 267.583 122.495 262.28 118.759C256.798 114.896 250.42 113.106 243.87 113.106V154.106ZM235.83 151.762V200H276.83V151.762H235.83ZM256.33 220.5H283.208V179.5H256.33V220.5ZM303.708 200V143.396H262.708V200H303.708ZM303.708 143.396C303.708 131.484 300.017 118.425 291.457 107.938C282.46 96.9161 268.862 89.788 252.058 89.788V130.788C256.435 130.788 258.412 132.293 259.695 133.864C261.414 135.971 262.708 139.466 262.708 143.396H303.708ZM375.164 127.732L356.164 135.428L372.664 176.163L393.271 137.344L375.164 127.732ZM326.57 123.638H306.07V202.285L344.462 133.645L326.57 123.638ZM326.57 112.246H347.07V91.746H326.57V112.246ZM300.76 112.246V91.746H280.218L280.26 112.288L300.76 112.246ZM300.938 200L280.438 200.042L280.48 220.5H300.938V200ZM327.816 200V220.5H348.316V200H327.816ZM354.338 200H333.838V220.5H354.338V200ZM381.038 200V220.5H401.538V200H381.038ZM407.56 200H387.06V220.5H407.56V200ZM434.438 200V220.5H454.938V200H434.438ZM403.288 89.788C396.233 89.788 387.445 90.8297 378.657 95.5081C369.677 100.289 362.474 107.916 357.057 118.12L393.271 137.344C395.508 133.13 397.294 132.035 397.926 131.698C398.75 131.259 400.197 130.788 403.288 130.788V89.788ZM394.164 120.036C389.716 109.053 382.629 100.996 373.837 95.9539C365.358 91.0909 356.633 89.788 349.71 89.788V130.788C351.687 130.788 352.841 131.176 353.44 131.52C353.715 131.678 354.047 131.919 354.441 132.381C354.846 132.855 355.492 133.769 356.164 135.428L394.164 120.036ZM349.71 89.788C336.511 89.788 319.15 94.9097 308.678 113.631L344.462 133.645C344.991 132.699 345.445 132.187 345.724 131.919C346.002 131.653 346.254 131.487 346.507 131.361C347.048 131.09 348.054 130.788 349.71 130.788V89.788ZM347.07 123.638V112.246H306.07V123.638H347.07ZM326.57 91.746H300.76V132.746H326.57V91.746ZM280.26 112.288L280.438 200.042L321.438 199.958L321.26 112.204L280.26 112.288ZM300.938 220.5H327.816V179.5H300.938V220.5ZM348.316 200V171.698H307.316V200H348.316ZM348.316 171.698C348.316 169.286 348.248 166.861 348.182 164.686C348.113 162.415 348.047 160.435 348.019 158.474C347.962 154.412 348.112 151.832 348.419 150.175C348.741 148.432 348.869 149.803 347.047 151.645C344.671 154.048 342.223 154.106 342.59 154.106V113.106C333.701 113.106 324.778 115.857 317.896 122.815C311.569 129.212 309.16 137.003 308.103 142.714C307.03 148.51 306.958 154.418 307.023 159.051C307.107 164.999 307.316 167.235 307.316 171.698H348.316ZM342.59 154.106C342.16 154.106 341.221 154.038 339.992 153.603C338.734 153.158 337.518 152.451 336.467 151.538C334.435 149.774 333.86 148.016 333.796 147.814C333.726 147.591 333.817 147.813 333.854 148.581C333.87 148.9 333.873 149.227 333.868 149.574C333.866 149.753 333.862 149.921 333.856 150.149C333.853 150.251 333.838 150.763 333.838 151.228H374.838C374.838 151.913 375.403 143.381 372.877 135.418C371.501 131.078 368.8 125.314 363.348 120.58C357.528 115.527 350.249 113.106 342.59 113.106V154.106ZM333.838 151.228V200H374.838V151.228H333.838ZM354.338 220.5H381.038V179.5H354.338V220.5ZM401.538 200V171.698H360.538V200H401.538ZM401.538 171.698C401.538 169.265 401.466 166.828 401.394 164.63C401.317 162.33 401.243 160.35 401.203 158.356C401.122 154.249 401.243 151.611 401.537 149.883C401.853 148.025 402.018 149.412 400.19 151.339C397.731 153.931 395.04 154.106 395.1 154.106V113.106C386.171 113.106 377.227 115.973 370.446 123.121C364.296 129.603 362.07 137.41 361.118 143.006C360.143 148.732 360.12 154.582 360.211 159.169C360.322 164.755 360.538 167.588 360.538 171.698H401.538ZM395.1 154.106C394.068 154.106 392.006 153.762 389.895 152.275C387.963 150.914 387.133 149.4 386.895 148.889C386.685 148.44 386.783 148.469 386.898 149.23C387.005 149.928 387.06 150.803 387.06 151.762H428.06C428.06 147.647 427.724 139.422 424.042 131.539C422.069 127.313 418.813 122.495 413.511 118.759C408.029 114.896 401.65 113.106 395.1 113.106V154.106ZM387.06 151.762V200H428.06V151.762H387.06ZM407.56 220.5H434.438V179.5H407.56V220.5ZM454.938 200V143.396H413.938V200H454.938ZM454.938 143.396C454.938 131.484 451.248 118.425 442.687 107.938C433.691 96.9161 420.093 89.788 403.288 89.788V130.788C407.665 130.788 409.642 132.293 410.925 133.864C412.644 135.971 413.938 139.466 413.938 143.396H454.938ZM453.63 236.312L434.674 228.507L423.019 256.812H453.63V236.312ZM482.644 236.312V256.812H496.391L501.609 244.094L482.644 236.312ZM533.552 112.246L552.517 120.028L564.122 91.746H533.552V112.246ZM504.182 112.246V91.746H489.888L484.946 105.159L504.182 112.246ZM484.246 166.358L464.735 172.648L482.954 229.164L503.482 173.445L484.246 166.358ZM466.802 112.246L486.313 105.956L481.732 91.746H466.802V112.246ZM437.254 112.246V91.746H407.41L418.119 119.602L437.254 112.246ZM469.828 196.974L488.784 204.779L491.891 197.234L488.963 189.618L469.828 196.974ZM453.63 256.812H482.644V215.812H453.63V256.812ZM501.609 244.094L552.517 120.028L514.587 104.464L463.679 228.53L501.609 244.094ZM533.552 91.746H504.182V132.746H533.552V91.746ZM484.946 105.159L465.01 159.271L503.482 173.445L523.418 119.333L484.946 105.159ZM503.757 160.068L486.313 105.956L447.291 118.536L464.735 172.648L503.757 160.068ZM466.802 91.746H437.254V132.746H466.802V91.746ZM418.119 119.602L450.693 204.33L488.963 189.618L456.389 104.89L418.119 119.602ZM450.872 189.169L434.674 228.507L472.586 244.117L488.784 204.779L450.872 189.169ZM567.003 119.188H546.503V168.679L581.499 133.684L567.003 119.188ZM567.003 75.934H587.503V55.434H567.003V75.934ZM540.125 75.934V55.434H519.625V75.934H540.125ZM540.125 200H519.625V220.5H540.125V200ZM567.003 200V220.5H587.503V200H567.003ZM567.003 193.414L581.708 179.13L546.503 142.89V193.414H567.003ZM590.499 89.788C576.821 89.788 562.246 94.9545 552.508 104.692L581.499 133.684C581.775 133.408 582.777 132.608 584.674 131.883C586.507 131.181 588.569 130.788 590.499 130.788V89.788ZM587.503 119.188V75.934H546.503V119.188H587.503ZM567.003 55.434H540.125V96.434H567.003V55.434ZM519.625 75.934V200H560.625V75.934H519.625ZM540.125 220.5H567.003V179.5H540.125V220.5ZM587.503 200V193.414H546.503V200H587.503ZM552.299 207.698C563.621 219.353 579.188 222.458 589.965 222.458V181.458C588.092 181.458 586.104 181.16 584.431 180.596C582.761 180.033 581.979 179.409 581.708 179.13L552.299 207.698ZM589.965 222.458C607.981 222.458 622.964 214.384 632.841 201.118C642.266 188.46 646.244 172.294 646.244 156.034H605.244C605.244 166.118 602.724 172.914 599.956 176.632C597.64 179.742 594.734 181.458 589.965 181.458V222.458ZM646.244 156.034C646.244 137.716 641.229 121.323 631.142 109.099C620.885 96.6703 606.301 89.788 590.499 89.788V130.788C593.922 130.788 596.96 132.094 599.519 135.195C602.248 138.502 605.244 144.982 605.244 156.034H646.244ZM582.845 156.36C581.716 156.36 581.769 156.172 582.481 156.486C582.833 156.642 583.256 156.882 583.693 157.225C584.128 157.567 584.486 157.941 584.762 158.298C585.309 159.006 585.356 159.411 585.264 159.067C585.167 158.7 585.011 157.841 585.011 156.39H544.011C544.011 164.314 545.568 174.627 552.315 183.362C559.792 193.041 570.93 197.36 582.845 197.36V156.36ZM585.011 156.39C585.011 154.907 585.157 153.84 585.313 153.183C585.471 152.519 585.553 152.628 585.206 153.135C585.021 153.406 584.734 153.757 584.327 154.119C583.914 154.486 583.46 154.791 583.008 155.017C582.054 155.496 581.677 155.352 582.489 155.352V114.352C569.43 114.352 558.314 119.845 551.382 129.963C545.32 138.812 544.011 148.949 544.011 156.39H585.011ZM582.489 155.352C583.349 155.352 582.909 155.494 581.809 155.002C581.252 154.752 580.635 154.387 580.032 153.892C579.431 153.398 578.967 152.876 578.631 152.406C577.981 151.497 578.005 151.065 578.171 151.796C578.341 152.541 578.543 153.992 578.543 156.39H619.543C619.543 148.073 618.341 137.45 611.98 128.556C604.588 118.22 593.405 114.352 582.489 114.352V155.352ZM578.543 156.39C578.543 158.767 578.329 160.055 578.202 160.575C578.084 161.055 578.17 160.36 579.023 159.26C579.453 158.706 580.002 158.151 580.657 157.659C581.309 157.168 581.94 156.836 582.463 156.623C583.466 156.215 583.789 156.36 582.845 156.36V197.36C592.62 197.36 603.701 194.332 611.41 184.403C618.212 175.64 619.543 164.939 619.543 156.39H578.543ZM638.062 236.312L619.106 228.507L607.451 256.812H638.062V236.312ZM667.076 236.312V256.812H680.823L686.041 244.094L667.076 236.312ZM717.984 112.246L736.949 120.028L748.554 91.746H717.984V112.246ZM688.614 112.246V91.746H674.319L669.378 105.159L688.614 112.246ZM668.678 166.358L649.166 172.648L667.386 229.164L687.914 173.445L668.678 166.358ZM651.234 112.246L670.745 105.956L666.164 91.746H651.234V112.246ZM621.686 112.246V91.746H591.842L602.551 119.602L621.686 112.246ZM654.26 196.974L673.216 204.779L676.322 197.234L673.394 189.618L654.26 196.974ZM638.062 256.812H667.076V215.812H638.062V256.812ZM686.041 244.094L736.949 120.028L699.018 104.464L648.11 228.53L686.041 244.094ZM717.984 91.746H688.614V132.746H717.984V91.746ZM669.378 105.159L649.442 159.271L687.914 173.445L707.85 119.333L669.378 105.159ZM688.189 160.068L670.745 105.956L631.722 118.536L649.166 172.648L688.189 160.068ZM651.234 91.746H621.686V132.746H651.234V91.746ZM602.551 119.602L635.125 204.33L673.394 189.618L640.82 104.89L602.551 119.602ZM635.304 189.169L619.106 228.507L657.018 244.117L673.216 204.779L635.304 189.169ZM779.679 133.072V153.572H800.179V133.072H779.679ZM779.679 112.246H800.179V91.746H779.679V112.246ZM757.251 112.246H736.751V132.746H757.251V112.246ZM757.251 79.494H777.751V38.8215L745.056 63.0152L757.251 79.494ZM730.551 99.252L718.356 82.7732L710.051 88.9195V99.252H730.551ZM730.551 112.246V132.746H751.051V112.246H730.551ZM716.489 112.246V91.746H695.989V112.246H716.489ZM716.489 133.072H695.989V153.572H716.489V133.072ZM730.551 133.072H751.051V112.572H730.551V133.072ZM779.501 199.11L786.165 218.497L799.876 213.783L800 199.285L779.501 199.11ZM779.679 178.284L800.178 178.459L800.42 150.172L773.463 158.749L779.679 178.284ZM757.251 133.072V112.572H736.751V133.072H757.251ZM800.179 133.072V112.246H759.179V133.072H800.179ZM779.679 91.746H757.251V132.746H779.679V91.746ZM777.751 112.246V79.494H736.751V112.246H777.751ZM745.056 63.0152L718.356 82.7732L742.745 115.731L769.445 95.9728L745.056 63.0152ZM710.051 99.252V112.246H751.051V99.252H710.051ZM730.551 91.746H716.489V132.746H730.551V91.746ZM695.989 112.246V133.072H736.989V112.246H695.989ZM716.489 153.572H730.551V112.572H716.489V153.572ZM710.051 133.072V172.054H751.051V133.072H710.051ZM710.051 172.054C710.051 188.131 715.595 202.015 727.096 211.34C737.834 220.047 750.948 222.458 761.879 222.458V181.458C756.256 181.458 753.705 180.131 752.918 179.493C752.63 179.26 752.308 178.928 751.975 178.147C751.604 177.277 751.051 175.422 751.051 172.054H710.051ZM761.879 222.458C770.19 222.458 778.155 221.25 786.165 218.497L772.837 179.723C769.455 180.886 766.027 181.458 761.879 181.458V222.458ZM800 199.285L800.178 178.459L759.179 178.109L759.001 198.935L800 199.285ZM773.463 158.749C771.036 159.521 769.253 159.742 768.287 159.742V200.742C774.441 200.742 780.49 199.539 785.894 197.819L773.463 158.749ZM768.287 159.742C767.708 159.742 768.82 159.638 770.701 160.531C772.815 161.535 774.761 163.263 776.101 165.446C777.297 167.393 777.612 169.047 777.7 169.643C777.779 170.17 777.751 170.49 777.751 169.562H736.751C736.751 170.604 736.335 179.037 741.159 186.895C747.295 196.89 757.856 200.742 768.287 200.742V159.742ZM777.751 169.562V133.072H736.751V169.562H777.751ZM757.251 153.572H779.679V112.572H757.251V153.572ZM868.141 185.582L883.52 199.137L897.05 183.785L881.723 170.228L868.141 185.582ZM849.629 169.206L863.211 153.852L847.305 139.78L833.804 156.174L849.629 169.206ZM813.139 165.468V144.968H789.244L792.877 168.585L813.139 165.468ZM870.811 165.468V185.968H889.451L891.218 167.412L870.811 165.468ZM812.783 145.71L792.634 141.932L788.082 166.21H812.783V145.71ZM845.713 145.71V166.21H867.123L866.193 144.82L845.713 145.71ZM891.845 156.924C891.845 139.97 887.331 123.135 876.333 110.188C864.95 96.7884 848.494 89.788 829.515 89.788V130.788C837.947 130.788 842.406 133.578 845.085 136.732C848.149 140.339 850.845 146.822 850.845 156.924H891.845ZM829.515 89.788C807.839 89.788 790.946 98.5602 779.982 112.601C769.595 125.903 765.761 142.283 765.761 156.568H806.761C806.761 148.959 808.889 142.199 812.297 137.835C815.128 134.209 819.862 130.788 829.515 130.788V89.788ZM765.761 156.568C765.761 171.264 769.721 187.72 780.719 200.884C792.225 214.655 809.475 222.458 830.939 222.458V181.458C820.006 181.458 814.917 177.869 812.183 174.596C808.941 170.717 806.761 164.478 806.761 156.568H765.761ZM830.939 222.458C852.221 222.458 870.313 214.121 883.52 199.137L852.761 172.027C847.456 178.047 840.628 181.458 830.939 181.458V222.458ZM881.723 170.228L863.211 153.852L836.046 184.56L854.558 200.936L881.723 170.228ZM833.804 156.174C833.459 156.593 833.146 156.797 832.819 156.939C832.431 157.107 831.854 157.25 831.117 157.25V198.25C842.834 198.25 855.984 193.736 865.453 182.238L833.804 156.174ZM831.117 157.25C828.349 157.25 828.903 156.614 830.549 157.857C831.364 158.473 832.099 159.307 832.634 160.257C833.149 161.171 833.336 161.936 833.4 162.351L792.877 168.585C794.105 176.568 798.082 184.712 805.829 190.567C813.305 196.216 822.314 198.25 831.117 198.25V157.25ZM813.139 185.968H870.811V144.968H813.139V185.968ZM891.218 167.412C891.58 163.611 891.845 160.464 891.845 156.924H850.845C850.845 158.368 850.753 159.849 850.403 163.524L891.218 167.412ZM832.931 149.488C832.919 149.556 832.883 149.724 832.752 150.003C832.613 150.297 832.308 150.832 831.724 151.421C831.099 152.051 830.351 152.542 829.623 152.833C828.92 153.114 828.662 153.038 829.159 153.038V112.038C818.531 112.038 809.32 115.785 802.608 122.555C796.374 128.843 793.687 136.315 792.634 141.932L832.931 149.488ZM829.159 153.038C829.959 153.038 829.423 153.279 828.223 152.365C827.577 151.874 826.804 151.078 826.186 149.931C825.552 148.757 825.274 147.571 825.232 146.6L866.193 144.82C865.186 121.654 844.513 112.038 829.159 112.038V153.038ZM845.713 125.21H812.783V166.21H845.713V125.21ZM859.852 163.588L860.03 163.41L831.039 134.418L830.861 134.596L859.852 163.588ZM831.039 134.418L830.861 134.596L859.852 163.588L860.03 163.41L831.039 134.418ZM926.851 141.082L908.854 150.898L918.718 168.982L936.754 159.031L926.851 141.082ZM947.499 129.69L957.402 147.639L976.015 137.371L965.078 119.143L947.499 129.69ZM896.057 167.07L915.281 159.95L907.688 139.449L887.717 148.343L896.057 167.07ZM874.875 176.504L866.535 157.777L849.759 165.249L855.348 182.742L874.875 176.504ZM912.255 222.458C923.72 222.458 937.146 219.419 948.292 211.365C960.213 202.751 968.533 188.977 968.533 170.986H927.533C927.533 173.405 927.028 174.787 926.609 175.582C926.169 176.417 925.466 177.275 924.279 178.133C921.63 180.047 917.167 181.458 912.255 181.458V222.458ZM968.533 170.986C968.533 157.687 963.963 146.657 955.763 138.497C948.266 131.035 939.165 127.437 932.674 125.385C929.321 124.325 926.068 123.506 923.595 122.883C920.834 122.187 919.268 121.786 918.086 121.397C916.657 120.928 917.799 121.092 919.541 122.472C922.07 124.477 925.457 128.83 925.457 135.03H884.457C884.457 144.122 889.191 150.734 894.076 154.605C898.173 157.852 902.68 159.492 905.29 160.349C908.146 161.288 911.291 162.064 913.579 162.64C916.153 163.289 918.285 163.836 920.316 164.478C924.594 165.83 926.263 166.982 926.842 167.558C927.002 167.717 927.064 167.812 927.142 168.006C927.234 168.237 927.533 169.099 927.533 170.986H968.533ZM925.457 135.03C925.457 140.321 922.806 145.249 918.742 148.152C915.357 150.569 912.535 150.546 912.433 150.546V109.546C907.348 109.546 900.788 110.591 894.911 114.788C888.355 119.471 884.457 126.891 884.457 135.03H925.457ZM912.433 150.546C911.717 150.546 910.663 150.376 909.541 149.863C908.483 149.379 907.826 148.803 907.545 148.52C907.302 148.274 907.327 148.234 907.598 148.663C907.924 149.178 908.161 149.628 908.854 150.898L944.848 131.266C943.78 129.307 934.937 109.546 912.433 109.546V150.546ZM936.754 159.031L957.402 147.639L937.596 111.741L916.948 123.133L936.754 159.031ZM965.078 119.143C954.705 101.855 936.705 89.788 912.789 89.788V130.788C921.27 130.788 926.41 134.385 929.921 140.237L965.078 119.143ZM912.789 89.788C902.007 89.788 889.264 92.3242 878.583 99.7598C867.009 107.816 859.181 120.838 859.181 137.7H900.181C900.181 135.839 900.562 135.015 900.711 134.735C900.878 134.423 901.202 133.97 902.007 133.41C903.919 132.079 907.73 130.788 912.789 130.788V89.788ZM859.181 137.7C859.181 150.735 863.862 161.38 871.678 169.273C878.801 176.467 887.443 180.254 893.595 182.522C896.758 183.688 899.887 184.664 902.199 185.397C904.786 186.218 906.276 186.715 907.332 187.149C908.585 187.664 907.56 187.441 906.029 186.037C903.891 184.077 901.189 180.127 901.189 174.724H942.189C942.189 166.295 938.175 159.886 933.74 155.82C929.911 152.309 925.605 150.331 922.919 149.227C920.037 148.043 916.933 147.057 914.597 146.316C911.986 145.488 909.864 144.822 907.776 144.053C903.426 142.449 901.566 141.186 900.812 140.425C900.752 140.364 900.181 140.151 900.181 137.7H859.181ZM901.189 174.724C901.189 170.262 903.176 165.514 907.152 162.441C910.563 159.805 913.235 160.098 912.077 160.098V201.098C918.395 201.098 925.874 199.789 932.222 194.884C939.135 189.541 942.189 181.856 942.189 174.724H901.189ZM912.077 160.098C911.643 160.098 912.277 160.032 913.43 160.568C913.976 160.822 914.508 161.151 914.993 161.537C915.472 161.918 915.832 162.294 916.084 162.6C916.551 163.167 916.619 163.46 916.415 162.993C916.319 162.773 916.194 162.463 916.007 161.954C915.912 161.695 915.818 161.433 915.695 161.091C915.584 160.78 915.435 160.365 915.281 159.95L876.834 174.19C877.126 174.981 879.392 182.545 884.442 188.673C890.741 196.317 900.17 201.098 912.077 201.098V160.098ZM887.717 148.343L866.535 157.777L883.216 195.231L904.398 185.797L887.717 148.343ZM855.348 182.742C862.07 203.786 883.657 222.458 912.255 222.458V181.458C902.049 181.458 895.869 174.854 894.403 170.266L855.348 182.742Z" fill="#444444"/>
<path d="M87.8428 133.072V112.246H65.4148V79.494L38.7148 99.252V112.246H24.6528V133.072H38.7148V172.054C38.7148 194.482 53.4888 201.958 70.0428 201.958C76.2728 201.958 81.9688 201.068 87.6648 199.11L87.8428 178.284C83.9268 179.53 80.0108 180.242 76.4508 180.242C65.4148 180.242 65.4148 172.944 65.4148 169.562V133.072H87.8428ZM102.592 100.142H130.004V75.934H102.592V100.142ZM102.77 200H129.648V112.246H102.77V200ZM252.058 110.288C241.912 110.288 231.588 113.314 223.934 127.732C218.238 113.67 207.38 110.288 198.48 110.288C190.47 110.288 181.214 113.136 175.34 123.638V112.246H149.53L149.708 200H176.586V171.698C176.586 155.144 172.848 133.606 191.36 133.606C204.354 133.606 203.108 149.092 203.108 151.228V200H229.808V171.698C229.808 155.144 225.892 133.606 243.87 133.606C254.906 133.606 256.33 145.176 256.33 151.762V200H283.208V143.396C283.208 127.554 273.24 110.288 252.058 110.288ZM403.288 110.288C393.142 110.288 382.818 113.314 375.164 127.732C369.468 113.67 358.61 110.288 349.71 110.288C341.7 110.288 332.444 113.136 326.57 123.638V112.246H300.76L300.938 200H327.816V171.698C327.816 155.144 324.078 133.606 342.59 133.606C355.584 133.606 354.338 149.092 354.338 151.228V200H381.038V171.698C381.038 155.144 377.122 133.606 395.1 133.606C406.136 133.606 407.56 145.176 407.56 151.762V200H434.438V143.396C434.438 127.554 424.47 110.288 403.288 110.288ZM453.63 236.312H482.644L533.552 112.246H504.182L484.246 166.358L466.802 112.246H437.254L469.828 196.974L453.63 236.312ZM590.499 110.288C581.421 110.288 572.343 113.848 567.003 119.188V75.934H540.125V200H567.003V193.414C573.055 199.644 582.311 201.958 589.965 201.958C612.749 201.958 625.744 182.378 625.744 156.034C625.744 126.664 609.723 110.288 590.499 110.288ZM582.845 176.86C569.139 176.86 564.511 167.604 564.511 156.39C564.511 145.532 568.605 134.852 582.489 134.852C594.593 134.852 599.043 142.684 599.043 156.39C599.043 170.274 594.237 176.86 582.845 176.86ZM638.062 236.312H667.076L717.984 112.246H688.614L668.678 166.358L651.234 112.246H621.686L654.26 196.974L638.062 236.312ZM779.679 133.072V112.246H757.251V79.494L730.551 99.252V112.246H716.489V133.072H730.551V172.054C730.551 194.482 745.325 201.958 761.879 201.958C768.109 201.958 773.805 201.068 779.501 199.11L779.679 178.284C775.763 179.53 771.847 180.242 768.287 180.242C757.251 180.242 757.251 172.944 757.251 169.562V133.072H779.679ZM871.345 156.924C871.345 129.868 856.927 110.288 829.515 110.288C798.187 110.288 786.261 134.674 786.261 156.568C786.261 179.174 798.543 201.958 830.939 201.958C846.425 201.958 858.885 196.084 868.141 185.582L849.629 169.206C844.645 175.258 837.703 177.75 831.117 177.75C819.547 177.75 814.207 172.41 813.139 165.468H870.811C871.167 161.73 871.345 159.416 871.345 156.924ZM812.783 145.71C813.851 140.014 817.945 132.538 829.159 132.538C838.059 132.538 845.357 137.522 845.713 145.71H812.783ZM845.357 149.092L845.535 148.914L845.357 149.092ZM912.255 201.958C928.631 201.958 948.033 193.058 948.033 170.986C948.033 137.878 904.957 146.6 904.957 135.03C904.957 132.182 907.449 130.046 912.433 130.046C921.155 130.046 924.715 137.166 926.851 141.082L947.499 129.69C940.557 118.12 928.987 110.288 912.789 110.288C896.947 110.288 879.681 117.942 879.681 137.7C879.681 168.672 921.689 162.62 921.689 174.724C921.689 177.394 919.553 180.598 912.077 180.598C900.151 180.598 897.837 171.876 896.057 167.07L874.875 176.504C878.969 189.32 892.853 201.958 912.255 201.958Z" fill="#FF90AD"/>
</svg>
