<svg width="962" height="84" viewBox="0 0 962 84" fill="none" xmlns="http://www.w3.org/2000/svg">
<rect width="259" height="84" rx="10" fill="#FF90AD"/>
<path d="M28.8947 21.574V35.726C27.0967 33.928 24.1967 32.768 21.3547 32.768C14.9167 32.768 9.69669 38.104 9.69669 47.674C9.69669 56.258 13.9307 62.638 21.3547 62.638C23.8487 62.638 26.8647 61.884 28.8947 59.854V62H37.5947V21.574H28.8947ZM23.7327 54.46C20.5427 54.46 18.4547 52.314 18.4547 47.79C18.4547 43.382 20.4267 40.772 23.7907 40.772C28.3727 40.772 29.7067 44.31 29.7067 47.79C29.7067 51.444 28.1987 54.46 23.7327 54.46ZM68.2572 47.964C68.2572 39.148 63.5592 32.768 54.6272 32.768C44.4192 32.768 40.5332 40.714 40.5332 47.848C40.5332 55.214 44.5352 62.638 55.0912 62.638C60.1372 62.638 64.1972 60.724 67.2132 57.302L61.1812 51.966C59.5572 53.938 57.2952 54.75 55.1492 54.75C51.3792 54.75 49.6392 53.01 49.2912 50.748H68.0832C68.1992 49.53 68.2572 48.776 68.2572 47.964ZM49.1752 44.31C49.5232 42.454 50.8572 40.018 54.5112 40.018C57.4112 40.018 59.7892 41.642 59.9052 44.31H49.1752ZM59.7892 45.412L59.8472 45.354L59.7892 45.412ZM78.5137 62H85.6477L97.2477 33.406H87.8517L82.0517 50.574L76.4257 33.406H66.8557L78.5137 62ZM122.691 47.964C122.691 39.148 117.993 32.768 109.061 32.768C98.8531 32.768 94.9671 40.714 94.9671 47.848C94.9671 55.214 98.9691 62.638 109.525 62.638C114.571 62.638 118.631 60.724 121.647 57.302L115.615 51.966C113.991 53.938 111.729 54.75 109.583 54.75C105.813 54.75 104.073 53.01 103.725 50.748H122.517C122.633 49.53 122.691 48.776 122.691 47.964ZM103.609 44.31C103.957 42.454 105.291 40.018 108.945 40.018C111.845 40.018 114.223 41.642 114.339 44.31H103.609ZM114.223 45.412L114.281 45.354L114.223 45.412ZM132.774 62.638C134.05 62.638 135.79 62.406 137.588 61.71V54.866C136.892 55.04 136.196 55.098 135.732 55.098C134.63 55.098 134.05 54.924 134.05 53.59V21.574H125.292V54.75C125.292 60.26 128.598 62.638 132.774 62.638ZM152.688 62.638C161.852 62.638 167.362 55.504 167.362 47.674C167.362 39.786 161.91 32.768 152.688 32.768C143.35 32.768 137.956 39.844 137.956 47.674C137.956 55.504 143.408 62.638 152.688 62.638ZM152.688 55.04C147.874 55.04 146.714 51.154 146.714 47.674C146.714 44.02 147.932 40.366 152.688 40.366C157.444 40.366 158.604 44.078 158.604 47.674C158.604 51.27 157.386 55.04 152.688 55.04ZM186.403 32.768C183.909 32.768 180.893 33.522 178.921 35.552V33.406H170.163V73.832H178.921V59.738C180.719 61.536 183.677 62.638 186.403 62.638C192.609 62.638 198.061 57.592 198.061 47.79C198.061 39.38 194.059 32.768 186.403 32.768ZM183.967 55.04C179.617 55.04 178.109 51.734 178.109 47.674C178.109 43.614 179.443 40.424 184.083 40.424C187.563 40.424 189.361 42.744 189.361 47.674C189.361 52.662 187.563 55.04 183.967 55.04ZM227.028 47.964C227.028 39.148 222.33 32.768 213.398 32.768C203.19 32.768 199.304 40.714 199.304 47.848C199.304 55.214 203.306 62.638 213.862 62.638C218.908 62.638 222.968 60.724 225.984 57.302L219.952 51.966C218.328 53.938 216.066 54.75 213.92 54.75C210.15 54.75 208.41 53.01 208.062 50.748H226.854C226.97 49.53 227.028 48.776 227.028 47.964ZM207.946 44.31C208.294 42.454 209.628 40.018 213.282 40.018C216.182 40.018 218.56 41.642 218.676 44.31H207.946ZM218.56 45.412L218.618 45.354L218.56 45.412ZM245.984 32.768C242.91 32.768 240.126 34.74 238.792 37.756V33.406H229.976V62H238.734V48.718C238.734 43.672 240.764 41.468 243.838 41.468C245.23 41.468 246.738 41.99 247.55 42.512L251.726 34.624C249.696 33.29 247.956 32.768 245.984 32.768Z" fill="#444444"/>
<rect x="281" width="224" height="84" rx="10" fill="#FFDF85"/>
<path d="M308.439 21.574V35.726C306.641 33.928 303.741 32.768 300.899 32.768C294.461 32.768 289.241 38.104 289.241 47.674C289.241 56.258 293.475 62.638 300.899 62.638C303.393 62.638 306.409 61.884 308.439 59.854V62H317.139V21.574H308.439ZM303.277 54.46C300.087 54.46 297.999 52.314 297.999 47.79C297.999 43.382 299.971 40.772 303.335 40.772C307.917 40.772 309.251 44.31 309.251 47.79C309.251 51.444 307.743 54.46 303.277 54.46ZM347.801 47.964C347.801 39.148 343.103 32.768 334.171 32.768C323.963 32.768 320.077 40.714 320.077 47.848C320.077 55.214 324.079 62.638 334.635 62.638C339.681 62.638 343.741 60.724 346.757 57.302L340.725 51.966C339.101 53.938 336.839 54.75 334.693 54.75C330.923 54.75 329.183 53.01 328.835 50.748H347.627C347.743 49.53 347.801 48.776 347.801 47.964ZM328.719 44.31C329.067 42.454 330.401 40.018 334.055 40.018C336.955 40.018 339.333 41.642 339.449 44.31H328.719ZM339.333 45.412L339.391 45.354L339.333 45.412ZM359.972 62.638C365.308 62.638 371.63 59.738 371.63 52.546C371.63 41.758 357.594 44.6 357.594 40.83C357.594 39.902 358.406 39.206 360.03 39.206C362.872 39.206 364.032 41.526 364.728 42.802L371.456 39.09C369.194 35.32 365.424 32.768 360.146 32.768C354.984 32.768 349.358 35.262 349.358 41.7C349.358 51.792 363.046 49.82 363.046 53.764C363.046 54.634 362.35 55.678 359.914 55.678C356.028 55.678 355.274 52.836 354.694 51.27L347.792 54.344C349.126 58.52 353.65 62.638 359.972 62.638ZM374.624 29.462H383.556V21.574H374.624V29.462ZM374.682 62H383.44V33.406H374.682V62ZM400.242 57.128C396.646 56.722 394.384 56.374 394.384 54.692C394.384 54.344 394.442 54.054 394.616 53.706C396.24 54.344 398.038 54.634 400.01 54.634C407.202 54.634 412.074 50.458 412.074 44.078C412.074 42.28 411.668 40.714 411.03 39.264L415.322 35.842L410.74 30.332L406.1 34.276C404.186 33.29 401.982 32.768 399.72 32.768C393.166 32.768 387.482 37.118 387.482 43.788C387.482 46.282 388.294 48.544 389.686 50.284C388.178 51.792 387.308 53.648 387.308 56.084C387.308 59.274 388.816 61.246 390.962 62.464L386.728 64.03C386.554 64.726 386.496 65.422 386.496 65.944C386.496 71.512 392.238 75.05 400.532 75.05C408.362 75.05 414.104 71.918 414.104 65.422C414.104 59.042 408.536 58.114 400.242 57.128ZM399.836 40.018C402.098 40.018 403.374 41.526 403.374 43.788C403.374 45.934 402.388 47.79 399.836 47.79C397.226 47.79 396.24 45.934 396.24 43.788C396.24 41.584 397.516 40.018 399.836 40.018ZM400.938 68.728C397.226 68.728 395.312 67.684 395.312 66.234C395.312 66.118 395.312 65.944 395.37 65.828L396.994 64.204C397.574 64.32 398.154 64.378 398.676 64.436C401.866 64.784 405.404 64.9 405.404 66.814C405.404 67.8 404.418 68.728 400.938 68.728ZM433.929 32.768C430.913 32.768 427.955 33.464 425.809 36.074V33.406H417.051V62H425.809V48.66C425.809 45.528 425.809 40.366 431.203 40.366C435.727 40.366 435.727 44.02 435.727 46.224V62H444.485V42.976C444.485 36.712 440.541 32.768 433.929 32.768ZM474.484 47.964C474.484 39.148 469.786 32.768 460.854 32.768C450.646 32.768 446.76 40.714 446.76 47.848C446.76 55.214 450.762 62.638 461.318 62.638C466.364 62.638 470.424 60.724 473.44 57.302L467.408 51.966C465.784 53.938 463.522 54.75 461.376 54.75C457.606 54.75 455.866 53.01 455.518 50.748H474.31C474.426 49.53 474.484 48.776 474.484 47.964ZM455.402 44.31C455.75 42.454 457.084 40.018 460.738 40.018C463.638 40.018 466.016 41.642 466.132 44.31H455.402ZM466.016 45.412L466.074 45.354L466.016 45.412ZM493.44 32.768C490.366 32.768 487.582 34.74 486.248 37.756V33.406H477.432V62H486.19V48.718C486.19 43.672 488.22 41.468 491.294 41.468C492.686 41.468 494.194 41.99 495.006 42.512L499.182 34.624C497.152 33.29 495.412 32.768 493.44 32.768Z" fill="#444444"/>
<rect x="527" width="172" height="84" rx="10" fill="#D2FFAE"/>
<path d="M546.768 62H554.598L558.948 45.876L563.414 62H571.128L580.234 33.406H570.896L566.72 48.428L562.602 33.406H555.236L551.118 48.544L547 33.406H537.72L546.768 62ZM597.633 32.768C594.559 32.768 591.775 34.74 590.441 37.756V33.406H581.625V62H590.383V48.718C590.383 43.672 592.413 41.468 595.487 41.468C596.879 41.468 598.387 41.99 599.199 42.512L603.375 34.624C601.345 33.29 599.605 32.768 597.633 32.768ZM604.196 29.462H613.128V21.574H604.196V29.462ZM604.254 62H613.012V33.406H604.254V62ZM635.556 40.192V33.406H628.248V22.734L619.548 29.172V33.406H614.966V40.192H619.548V52.894C619.548 60.202 624.362 62.638 629.756 62.638C631.786 62.638 633.642 62.348 635.498 61.71L635.556 54.924C634.28 55.33 633.004 55.562 631.844 55.562C628.248 55.562 628.248 53.184 628.248 52.082V40.192H635.556ZM664.265 47.964C664.265 39.148 659.567 32.768 650.635 32.768C640.427 32.768 636.541 40.714 636.541 47.848C636.541 55.214 640.543 62.638 651.099 62.638C656.145 62.638 660.205 60.724 663.221 57.302L657.189 51.966C655.565 53.938 653.303 54.75 651.157 54.75C647.387 54.75 645.647 53.01 645.299 50.748H664.091C664.207 49.53 664.265 48.776 664.265 47.964ZM645.183 44.31C645.531 42.454 646.865 40.018 650.519 40.018C653.419 40.018 655.797 41.642 655.913 44.31H645.183ZM655.797 45.412L655.855 45.354L655.797 45.412ZM683.221 32.768C680.147 32.768 677.363 34.74 676.029 37.756V33.406H667.213V62H675.971V48.718C675.971 43.672 678.001 41.468 681.075 41.468C682.467 41.468 683.975 41.99 684.787 42.512L688.963 34.624C686.933 33.29 685.193 32.768 683.221 32.768Z" fill="#444444"/>
<rect x="721" width="241" height="84" rx="10" fill="#B8DCFF"/>
<path d="M767.49 32.768C764.184 32.768 760.82 33.754 758.326 38.452C756.47 33.87 752.932 32.768 750.032 32.768C747.422 32.768 744.406 33.696 742.492 37.118V33.406H734.082L734.14 62H742.898V52.778C742.898 47.384 741.68 40.366 747.712 40.366C751.946 40.366 751.54 45.412 751.54 46.108V62H760.24V52.778C760.24 47.384 758.964 40.366 764.822 40.366C768.418 40.366 768.882 44.136 768.882 46.282V62H777.64V43.556C777.64 38.394 774.392 32.768 767.49 32.768ZM799.895 33.406V42.86C799.895 49.646 799.895 55.04 794.617 55.04C790.383 55.04 789.977 52.082 789.977 49.298V33.406H781.219V51.096C781.219 57.824 784.351 62.638 791.949 62.638C795.023 62.638 797.807 61.652 799.895 59.216V62H808.653V33.406H799.895ZM823.227 62.638C828.563 62.638 834.885 59.738 834.885 52.546C834.885 41.758 820.849 44.6 820.849 40.83C820.849 39.902 821.661 39.206 823.285 39.206C826.127 39.206 827.287 41.526 827.983 42.802L834.711 39.09C832.449 35.32 828.679 32.768 823.401 32.768C818.239 32.768 812.613 35.262 812.613 41.7C812.613 51.792 826.301 49.82 826.301 53.764C826.301 54.634 825.605 55.678 823.169 55.678C819.283 55.678 818.529 52.836 817.949 51.27L811.047 54.344C812.381 58.52 816.905 62.638 823.227 62.638ZM837.878 29.462H846.81V21.574H837.878V29.462ZM837.936 62H846.694V33.406H837.936V62ZM863.903 62.638C869.877 62.638 874.401 59.274 876.315 53.88L868.427 50.806C867.905 53.358 866.049 55.04 863.787 55.04C859.669 55.04 858.451 51.444 858.451 47.79C858.451 44.078 859.785 40.366 863.845 40.366C866.165 40.366 867.963 42.106 868.369 44.774L876.605 41.468C874.459 35.61 869.877 32.768 863.845 32.768C854.101 32.768 849.461 40.25 849.461 47.79C849.461 55.098 853.927 62.638 863.903 62.638ZM878.775 29.462H887.707V21.574H878.775V29.462ZM878.833 62H887.591V33.406H878.833V62ZM904.568 32.768C899.58 32.768 894.302 34.392 890.706 38.162L897.028 43.44C899.58 41.004 901.784 40.366 903.93 40.366C907.12 40.366 908.86 41.816 908.86 43.846V44.31H900.972C898.42 44.31 896.158 44.774 894.36 45.76C891.924 47.094 890.416 49.472 890.416 52.778C890.416 58.636 895.056 62.638 901.494 62.638C903.582 62.638 906.656 62.232 908.976 59.158L909.556 62H917.56V43.846C917.56 37.06 912.688 32.768 904.568 32.768ZM902.886 55.62C900.392 55.62 899.174 54.402 899.174 52.952C899.174 52.256 899.464 51.676 900.044 51.27C900.566 50.922 901.32 50.748 902.248 50.748H908.86C908.686 53.59 906.018 55.62 902.886 55.62ZM938.987 32.768C935.971 32.768 933.013 33.464 930.867 36.074V33.406H922.109V62H930.867V48.66C930.867 45.528 930.867 40.366 936.261 40.366C940.785 40.366 940.785 44.02 940.785 46.224V62H949.543V42.976C949.543 36.712 945.599 32.768 938.987 32.768Z" fill="#444444"/>
</svg>
