<svg width="962" height="84" viewBox="0 0 962 84" fill="none" xmlns="http://www.w3.org/2000/svg">
<rect width="962" height="84" rx="10" fill="#D2FFAE"/>
<path d="M49.352 62H57.182L61.532 45.876L65.998 62H73.712L82.818 33.406H73.48L69.304 48.428L65.186 33.406H57.82L53.702 48.544L49.584 33.406H40.304L49.352 62ZM100.217 32.768C97.1431 32.768 94.3591 34.74 93.0251 37.756V33.406H84.2091V62H92.9671V48.718C92.9671 43.672 94.9971 41.468 98.0711 41.468C99.4631 41.468 100.971 41.99 101.783 42.512L105.959 34.624C103.929 33.29 102.189 32.768 100.217 32.768ZM106.78 29.462H115.712V21.574H106.78V29.462ZM106.838 62H115.596V33.406H106.838V62ZM138.14 40.192V33.406H130.832V22.734L122.132 29.172V33.406H117.55V40.192H122.132V52.894C122.132 60.202 126.946 62.638 132.34 62.638C134.37 62.638 136.226 62.348 138.082 61.71L138.14 54.924C136.864 55.33 135.588 55.562 134.428 55.562C130.832 55.562 130.832 53.184 130.832 52.082V40.192H138.14ZM166.849 47.964C166.849 39.148 162.151 32.768 153.219 32.768C143.011 32.768 139.125 40.714 139.125 47.848C139.125 55.214 143.127 62.638 153.683 62.638C158.729 62.638 162.789 60.724 165.805 57.302L159.773 51.966C158.149 53.938 155.887 54.75 153.741 54.75C149.971 54.75 148.231 53.01 147.883 50.748H166.675C166.791 49.53 166.849 48.776 166.849 47.964ZM147.767 44.31C148.115 42.454 149.449 40.018 153.103 40.018C156.003 40.018 158.381 41.642 158.497 44.31H147.767ZM158.381 45.412L158.439 45.354L158.381 45.412ZM185.806 32.768C182.732 32.768 179.948 34.74 178.614 37.756V33.406H169.798V62H178.556V48.718C178.556 43.672 180.586 41.468 183.66 41.468C185.052 41.468 186.56 41.99 187.372 42.512L191.548 34.624C189.518 33.29 187.778 32.768 185.806 32.768Z" fill="#444444"/>
</svg>
